<svg xmlns="http://www.w3.org/2000/svg" viewBox="0 0 1125 1051.1"><path d="M161.1 283.6c1.9-56.7-8.4-42.9 41.5-60.7 79.4-28.4 160.6-52.2 235.2-92.6 38.3-20.8 75.2-44.2 112.4-67.1 11.2-6.9 20.6-9.5 32.4-1.1 102.2 73.2 218 117.6 336.4 156.4 13.1 4.3 25.8 9.8 39 13.3 11.2 3 14.7 9.3 14.9 20.5 3 121.2-20.7 241.6-69.5 352.6-69.2 158.8-178.1 284.5-317.5 385.3-13.2 9.5-23.3 10-36.8.3-188-135.6-315.5-312.5-368.7-540-13-55.7-18.3-112.2-19.3-166.9z" fill="#263859" stroke="#1d1d1b" stroke-width="12.507" stroke-miterlimit="10"/><path d="M456.4 597.8h-14.9a243 243 0 01-36.1-3.9c-17.7-3.2-35-8.5-51.5-15.7-1.8-.8-3.6-1.4-5.4-2.3-.6-.4-1.1-1-1.2-1.8 0-19.7-.3-39.1 0-58.7.4-15 5.1-29.5 13.7-41.8 8-12 19-21.6 31.8-28.1l1.5-.7 1.5-.6c-24.2-40.4-1.9-82.3 26.5-96.2 12.1-6.1 25.7-8.5 39.2-6.9s26.1 7.3 36.3 16.3c10.2 8.9 17.5 20.7 20.9 33.8 29.1-20.8 58.1-20.8 87 0 6.5-22 20.1-37.9 41.6-46.2 16.1-6.4 34-6.2 49.9.8a65.67 65.67 0 0138.5 42c6.2 18.7 3.7 39.2-6.8 55.9 5.4 3.4 11 6.5 16.1 10.3 13.5 10.1 23.5 24.1 28.6 40.2 2.7 8.4 3.9 17.2 3.8 26-.1 17.9 0 35.7 0 53.6v1.4c-34.4 16.4-70.8 23.2-109 23v10.4c.2 1.3-.5 2.5-1.8 2.9-13 5.5-26 10.8-39.8 14.1-9.1 2.1-18.3 3.8-27.5 5.4-14.9 2.2-29.9 3-44.9 2.5-12-.3-24-1.4-35.9-3.4-15.5-2.5-30.8-6.6-45.4-12.3-5.1-2-10.2-4.2-15.3-6.2-1-.3-1.7-1.3-1.5-2.3.2-3.9.1-7.4.1-11.5zm105.9-102.6c-7.6 0-15.3-.2-22.9 0-5.2.1-10.4.8-15.5 1.9-25 6.3-43.1 28.1-44.5 53.9-.5 14.3-.1 28.6-.1 42.8 0 1 .2 1.6 1.3 2 3 1 5.9 2.2 8.9 3.3 21.6 7.2 44.1 11 66.8 11.3 13.6.3 27.1-.4 40.6-2.3 15.9-2.2 31.5-6.2 46.5-11.8 1.5-.4 2.5-1.9 2.3-3.4 0-12.3-.1-24.7 0-37 .5-16-5.6-31.4-16.9-42.8-11.8-12.1-26.4-17.8-43.2-17.9h-23.3zm-105.9 79.7v-2.3-15.1c-.2-8 .6-16 2.6-23.7 5.5-21.4 19.5-39.6 38.7-50.5 2.4-1.4 4.8-2.6 7-3.7-2.2-5.1-4.3-10.1-6.6-15-.5-.7-1.2-1.3-2-1.5-5.9-2-12-3-18.2-3h-49c-13.2-.1-26 4.4-36.2 12.8a57.457 57.457 0 00-22.4 46.5c-.1 11.8 0 23.7 0 35.6 0 5.2 0 5.2 4.9 7.1 10.1 3.8 20.5 6.8 31.1 8.8 11.3 2.3 22.8 3.7 34.4 4.2 5 0 10.2-.2 15.7-.2zm212 .3h3.8c18.1.1 36.2-1.9 53.8-6.2 8.9-2.3 17.7-5.4 26.6-8.1 1.4-.3 2.3-1.6 2.1-2.9-.1-12.4.1-24.8-.1-37.2 0-4.9-.5-9.9-1.5-14.7-2-9.5-6.5-18.4-13-25.6-11.1-12.5-25-19.7-41.7-20.2-18-.6-35.9-.2-53.9 0-5.5.1-10.9 1.1-16.1 3.1-.8.3-1.4.8-1.8 1.5-2.2 4.9-4.3 9.8-6.6 14.8.4.2 1 .6 1.7.9 7.8 3.6 14.8 8.5 21 14.4 16.6 15.5 25.9 37.2 25.7 59.9.1 6.5 0 13.2 0 20.3zm-41.6-167.3c-.1 24.7 19.8 44.7 44.5 44.8s44.7-19.8 44.8-44.5c.1-24.6-19.8-44.7-44.4-44.8-26.2 0-45.2 21.6-44.9 44.5zm-128.8 0c-.1-24.7-20.2-44.6-44.9-44.5-24.7.1-44.6 20.2-44.5 44.9.1 24 19.1 43.6 43.1 44.4 24.6.9 45.3-18.3 46.2-42.9V408l.1-.1zm109.1 35.5c0-24.7-20-44.7-44.7-44.7s-44.7 20-44.7 44.7c0 24.4 19.5 44.2 43.9 44.7 24.8.2 45.2-19.7 45.4-44.6.1 0 .1 0 .1-.1z" fill="#fca4a4"/><path d="M567.5 271.8c66.2 0 132.4-.3 198.6 0 58.2.3 93.5 40.4 86.5 98.3-10.1 83.5-20.6 167-31.1 250.5-6 47.6-38.5 76.1-87.2 76.5-27.1.2-54.2 1.2-81.2-.3-16.3-.9-22 5.8-25.8 20.3-8.7 33.4-18.5 66.5-29 99.4-2.1 6.5-9.6 11.2-14.6 16.8-4.9-5.8-12-10.7-14.2-17.5-10.9-34.3-21.1-68.8-30.4-103.6-3.1-11.7-8.6-15.3-20.4-15.2-40.6.6-81.2.4-121.9.2-49.2-.3-80.1-25.7-86.6-74-11.9-87.8-22.8-175.8-32.9-263.9-5.3-46.1 32.2-86.6 80.2-87.2 70.1-.9 140-.2 210-.3h0z" fill="none" stroke="#bac0cb" stroke-width="7.147" stroke-miterlimit="10"/></svg>