<?xml version="1.0" encoding="utf-8"?>
<!-- Generator: Adobe Illustrator 26.3.1, SVG Export Plug-In . SVG Version: 6.00 Build 0)  -->
<svg version="1.1" id="Calque_1" xmlns="http://www.w3.org/2000/svg" xmlns:xlink="http://www.w3.org/1999/xlink" x="0px" y="0px"
	 viewBox="0 0 1125 1051.1" style="enable-background:new 0 0 1125 1051.1;" xml:space="preserve">
<style type="text/css">
	.st0{fill:#263859;stroke:#1D1D1B;stroke-width:12.5073;stroke-miterlimit:10;}
	.st1{fill:#FCA4A4;}
	.st2{fill:none;stroke:#BAC0CB;stroke-width:7.1471;stroke-miterlimit:10;}
</style>
<g id="logo-17_00000075153518381269645520000015651749276178486427_">
	<path class="st0" d="M161.1,283.6c1.9-56.7-8.4-42.9,41.5-60.7c79.4-28.4,160.6-52.2,235.2-92.6c38.3-20.8,75.2-44.2,112.4-67.1
		c11.2-6.9,20.6-9.5,32.4-1.1c102.2,73.2,218,117.6,336.4,156.4c13.1,4.3,25.8,9.8,39,13.3c11.2,3,14.7,9.3,14.9,20.5
		c3,121.2-20.7,241.6-69.5,352.6c-69.2,158.8-178.1,284.5-317.5,385.3c-13.2,9.5-23.3,10-36.8,0.3c-188-135.6-315.5-312.5-368.7-540
		C167.4,394.8,162.1,338.3,161.1,283.6z"/>
	<path class="st1" d="M456.4,597.8c-5.2,0-10,0-14.9,0c-12.1-0.4-24.2-1.7-36.1-3.9c-17.7-3.2-35-8.5-51.5-15.7
		c-1.8-0.8-3.6-1.4-5.4-2.3c-0.6-0.4-1.1-1-1.2-1.8c0-19.7-0.3-39.1,0-58.7c0.4-15,5.1-29.5,13.7-41.8c8-12,19-21.6,31.8-28.1
		l1.5-0.7c0.5-0.2,1-0.4,1.5-0.6c-24.2-40.4-1.9-82.3,26.5-96.2c12.1-6.1,25.7-8.5,39.2-6.9s26.1,7.3,36.3,16.3
		c10.2,8.9,17.5,20.7,20.9,33.8c29.1-20.8,58.1-20.8,87,0c6.5-22,20.1-37.9,41.6-46.2c16.1-6.4,34-6.2,49.9,0.8
		c18.5,7.4,32.7,22.8,38.5,42c6.2,18.7,3.7,39.2-6.8,55.9c5.4,3.4,11,6.5,16.1,10.3c13.5,10.1,23.5,24.1,28.6,40.2
		c2.7,8.4,3.9,17.2,3.8,26c-0.1,17.9,0,35.7,0,53.6v1.4c-34.4,16.4-70.8,23.2-109,23c0,3.6,0,7,0,10.4c0.2,1.3-0.5,2.5-1.8,2.9
		c-13,5.5-26,10.8-39.8,14.1c-9.1,2.1-18.3,3.8-27.5,5.4c-14.9,2.2-29.9,3-44.9,2.5c-12-0.3-24-1.4-35.9-3.4
		c-15.5-2.5-30.8-6.6-45.4-12.3c-5.1-2-10.2-4.2-15.3-6.2c-1-0.3-1.7-1.3-1.5-2.3C456.5,605.4,456.4,601.9,456.4,597.8z
		 M562.3,495.2c-7.6,0-15.3-0.2-22.9,0c-5.2,0.1-10.4,0.8-15.5,1.9c-25,6.3-43.1,28.1-44.5,53.9c-0.5,14.3-0.1,28.6-0.1,42.8
		c0,1,0.2,1.6,1.3,2c3,1,5.9,2.2,8.9,3.3c21.6,7.2,44.1,11,66.8,11.3c13.6,0.3,27.1-0.4,40.6-2.3c15.9-2.2,31.5-6.2,46.5-11.8
		c1.5-0.4,2.5-1.9,2.3-3.4c0-12.3-0.1-24.7,0-37c0.5-16-5.6-31.4-16.9-42.8c-11.8-12.1-26.4-17.8-43.2-17.9
		C577.7,495.2,570,495.2,562.3,495.2z M456.4,574.9v-2.3c0-5,0-10.1,0-15.1c-0.2-8,0.6-16,2.6-23.7c5.5-21.4,19.5-39.6,38.7-50.5
		c2.4-1.4,4.8-2.6,7-3.7c-2.2-5.1-4.3-10.1-6.6-15c-0.5-0.7-1.2-1.3-2-1.5c-5.9-2-12-3-18.2-3c-16.3,0-32.6,0-49,0
		c-13.2-0.1-26,4.4-36.2,12.8c-14.4,11.1-22.7,28.3-22.4,46.5c-0.1,11.8,0,23.7,0,35.6c0,5.2,0,5.2,4.9,7.1
		c10.1,3.8,20.5,6.8,31.1,8.8c11.3,2.3,22.8,3.7,34.4,4.2C445.7,575.1,450.9,574.9,456.4,574.9z M668.4,575.2h3.8
		c18.1,0.1,36.2-1.9,53.8-6.2c8.9-2.3,17.7-5.4,26.6-8.1c1.4-0.3,2.3-1.6,2.1-2.9c-0.1-12.4,0.1-24.8-0.1-37.2
		c0-4.9-0.5-9.9-1.5-14.7c-2-9.5-6.5-18.4-13-25.6c-11.1-12.5-25-19.7-41.7-20.2c-18-0.6-35.9-0.2-53.9,0
		c-5.5,0.1-10.9,1.1-16.1,3.1c-0.8,0.3-1.4,0.8-1.8,1.5c-2.2,4.9-4.3,9.8-6.6,14.8c0.4,0.2,1,0.6,1.7,0.9c7.8,3.6,14.8,8.5,21,14.4
		c16.6,15.5,25.9,37.2,25.7,59.9C668.5,561.4,668.4,568.1,668.4,575.2z M626.8,407.9c-0.1,24.7,19.8,44.7,44.5,44.8
		s44.7-19.8,44.8-44.5c0.1-24.6-19.8-44.7-44.4-44.8C645.5,363.4,626.5,385,626.8,407.9z M498,407.9c-0.1-24.7-20.2-44.6-44.9-44.5
		c-24.7,0.1-44.6,20.2-44.5,44.9c0.1,24,19.1,43.6,43.1,44.4c24.6,0.9,45.3-18.3,46.2-42.9c0-0.6,0-1.2,0-1.8L498,407.9z
		 M607.1,443.4c0-24.7-20-44.7-44.7-44.7s-44.7,20-44.7,44.7c0,24.4,19.5,44.2,43.9,44.7c24.8,0.2,45.2-19.7,45.4-44.6
		C607.1,443.5,607.1,443.5,607.1,443.4L607.1,443.4z"/>
	<path class="st2" d="M567.5,271.8c66.2,0,132.4-0.3,198.6,0c58.2,0.3,93.5,40.4,86.5,98.3c-10.1,83.5-20.6,167-31.1,250.5
		c-6,47.6-38.5,76.1-87.2,76.5c-27.1,0.2-54.2,1.2-81.2-0.3c-16.3-0.9-22,5.8-25.8,20.3c-8.7,33.4-18.5,66.5-29,99.4
		c-2.1,6.5-9.6,11.2-14.6,16.8c-4.9-5.8-12-10.7-14.2-17.5c-10.9-34.3-21.1-68.8-30.4-103.6c-3.1-11.7-8.6-15.3-20.4-15.2
		c-40.6,0.6-81.2,0.4-121.9,0.2c-49.2-0.3-80.1-25.7-86.6-74c-11.9-87.8-22.8-175.8-32.9-263.9c-5.3-46.1,32.2-86.6,80.2-87.2
		C427.6,271.2,497.5,271.9,567.5,271.8L567.5,271.8z"/>
</g>
</svg>
